<svg width="20" height="20" viewBox="0 0 20 20" fill="none" xmlns="http://www.w3.org/2000/svg">
<path d="M9.91624 2.01343C12.4486 2.01343 12.749 2.02292 13.7496 2.06876C16.3199 2.18574 17.5205 3.4053 17.6375 5.95665C17.6833 6.95649 17.692 7.25683 17.692 9.78922C17.692 12.3224 17.6825 12.622 17.6375 13.6218C17.5197 16.1708 16.3223 17.3927 13.7496 17.5097C12.749 17.5555 12.4502 17.565 9.91624 17.565C7.38385 17.565 7.0835 17.5555 6.08367 17.5097C3.50702 17.3919 2.31275 16.1668 2.19578 13.621C2.14993 12.6212 2.14045 12.3216 2.14045 9.78843C2.14045 7.25604 2.15072 6.95649 2.19578 5.95586C2.31354 3.4053 3.51097 2.18494 6.08367 2.06797C7.08429 2.02292 7.38385 2.01343 9.91624 2.01343ZM9.91624 0.303833C7.34038 0.303833 7.0179 0.314898 6.00621 0.360741C2.56172 0.518817 0.647415 2.42996 0.489339 5.87761C0.442706 6.89009 0.431641 7.21257 0.431641 9.78843C0.431641 12.3643 0.442706 12.6876 0.488548 13.6992C0.646625 17.1437 2.55777 19.058 6.00542 19.2161C7.0179 19.262 7.34038 19.273 9.91624 19.273C12.4921 19.273 12.8154 19.262 13.8271 19.2161C17.2684 19.058 19.1874 17.1469 19.3431 13.6992C19.3898 12.6876 19.4008 12.3643 19.4008 9.78843C19.4008 7.21257 19.3898 6.89009 19.3439 5.8784C19.189 2.43708 17.2755 0.519608 13.8278 0.361531C12.8154 0.314898 12.4921 0.303833 9.91624 0.303833ZM9.91624 4.91809C7.22656 4.91809 5.0459 7.09876 5.0459 9.78843C5.0459 12.4781 7.22656 14.6596 9.91624 14.6596C12.6059 14.6596 14.7866 12.4789 14.7866 9.78843C14.7866 7.09876 12.6059 4.91809 9.91624 4.91809ZM9.91624 12.95C8.17028 12.95 6.7547 11.5352 6.7547 9.78843C6.7547 8.04247 8.17028 6.6269 9.91624 6.6269C11.6622 6.6269 13.0778 8.04247 13.0778 9.78843C13.0778 11.5352 11.6622 12.95 9.91624 12.95ZM14.9794 3.58787C14.3503 3.58787 13.8405 4.09767 13.8405 4.72603C13.8405 5.35438 14.3503 5.86418 14.9794 5.86418C15.6078 5.86418 16.1168 5.35438 16.1168 4.72603C16.1168 4.09767 15.6078 3.58787 14.9794 3.58787Z" fill="white"/>
</svg>
